# xmcd CD database file
#
# Track frame offsets:
#	150
#	12820
#	25975
#	39600
#	52457
#	63620
#	76647
#	89852
#	99572
#	112632
#	125780
#	139482
#	151485
#	165485
#	177562
#	188425
#	200240
#	213887
#	226352
#	237670
#	248362
#	259690
#	269937
#	279422
#	289002
#	298322
#
# Disc length: 4128 seconds
#
# Revision: 3
# Processed by: cddbd v1.5.2PL0 Copyright (c) Steve Scherf et al.
# Submitted via: CDex 1.70beta2
#
DISCID=90101e1a
DTITLE=T-bone Walker - The Complete Imperial Recordings, 1950-1954, Disc 2
DYEAR=1900
DGENRE=
TTITLE0=Blues Is A Woman
TTITLE1=I Got The Blues
TTITLE2=Here In The Dark
TTITLE3=Blue Mood
TTITLE4=Every Time
TTITLE5=I Miss You Baby
TTITLE6=Lollie Lou
TTITLE7=Party Girl
TTITLE8=Love Is Just A Gamble
TTITLE9=High Society
TTITLE10=Long Distance Blues
TTITLE11=Got No Use For You
TTITLE12=I'm Still In Love With You
TTITLE13=Railroad Station Blues
TTITLE14=Vida Lee
TTITLE15=My Baby Is Now On My Mind
TTITLE16=Doin' Time
TTITLE17=Bye Bye Baby
TTITLE18=When The Sun Goes Down
TTITLE19=Pony Tail
TTITLE20=Wanderin' Heart
TTITLE21=I'll Always Be In Love With You
TTITLE22=I'll Understand
TTITLE23=Hard Way
TTITLE24=Teen Age Baby
TTITLE25=Strugglin' Blues
EXTD=
EXTT0=
EXTT1=
EXTT2=
EXTT3=
EXTT4=
EXTT5=
EXTT6=
EXTT7=
EXTT8=
EXTT9=
EXTT10=
EXTT11=
EXTT12=
EXTT13=
EXTT14=
EXTT15=
EXTT16=
EXTT17=
EXTT18=
EXTT19=
EXTT20=
EXTT21=
EXTT22=
EXTT23=
EXTT24=
EXTT25=
PLAYORDER=
